<svg xmlns="http://www.w3.org/2000/svg" width="360" height="120" viewBox="0 0 360 120">
<style>line{stroke:black;stroke-width:2;stroke-linecap:round;}text{font-family:monospace;font-size:14px;}</style>
<line x1="20" y1="30" x2="40" y2="30"/>
<line x1="40" y1="30" x2="60" y2="30"/>
<line x1="60" y1="30" x2="80" y2="30"/>
<line x1="80" y1="30" x2="100" y2="30"/>
<line x1="40" y1="50" x2="60" y2="50"/>
<line x1="60" y1="50" x2="80" y2="50"/>
<line x1="80" y1="50" x2="100" y2="50"/>
<line x1="100" y1="50" x2="120" y2="50"/>
<line x1="60" y1="70" x2="80" y2="70"/>
<line x1="80" y1="70" x2="100" y2="70"/>
<line x1="100" y1="70" x2="120" y2="70"/>
<line x1="120" y1="70" x2="140" y2="70"/>
<line x1="90" y1="80" x2="90" y2="100"/>
<line x1="100" y1="90" x2="120" y2="90"/>
<line x1="130" y1="80" x2="130" y2="100"/>
<line x1="140" y1="90" x2="160" y2="90"/>
<line x1="170" y1="80" x2="170" y2="100"/>
</svg>