<svg xmlns="http://www.w3.org/2000/svg" width="400" height="100" viewBox="0 0 400 100">
<style>line{stroke:black;stroke-width:2;stroke-linecap:round;}text{font-family:monospace;font-size:14px;}</style>
<line x1="20" y1="30" x2="40" y2="30"/>
<line x1="40" y1="30" x2="60" y2="30"/>
<line x1="60" y1="30" x2="80" y2="30"/>
<line x1="70" y1="30" x2="70" y2="40"/>
<line x1="80" y1="30" x2="100" y2="30"/>
<line x1="110" y1="20" x2="110" y2="40"/>
<line x1="150" y1="20" x2="150" y2="40"/>
<line x1="40" y1="50" x2="60" y2="50"/>
<line x1="60" y1="50" x2="80" y2="50"/>
<line x1="70" y1="50" x2="70" y2="60"/>
<line x1="80" y1="50" x2="100" y2="50"/>
<line x1="100" y1="50" x2="120" y2="50"/>
<line x1="110" y1="50" x2="110" y2="60"/>
<line x1="150" y1="40" x2="150" y2="60"/>
<line x1="190" y1="40" x2="190" y2="60"/>
<line x1="60" y1="70" x2="80" y2="70"/>
<line x1="70" y1="60" x2="70" y2="80"/>
<line x1="80" y1="70" x2="100" y2="70"/>
<line x1="100" y1="70" x2="120" y2="70"/>
<line x1="110" y1="60" x2="110" y2="80"/>
<line x1="120" y1="70" x2="140" y2="70"/>
<line x1="140" y1="70" x2="160" y2="70"/>
<line x1="150" y1="60" x2="150" y2="80"/>
<line x1="160" y1="70" x2="180" y2="70"/>
<line x1="180" y1="70" x2="200" y2="70"/>
<line x1="190" y1="60" x2="190" y2="80"/>
</svg>